# xmcd
#
# Track frame offsets:
#	150
#	18536
#	33417
#	48392
#	63437
#	77779
#	93912
#	110903
#	126273
#	141532
#	157755
#	173574
#	189315
#	202662
#	217813
#	232880
#	256199
#	273591
#	285445
#
# Disc length: 3957 seconds
#
# Revision: 2
# Processed by: cddbd v1.5.2PL0 Copyright (c) Steve Scherf et al.
# Submitted via: audiograbber 1.83.01
#
DISCID=010f7313
DTITLE=Various Artist - Promo Only Country Radio April 2012
DYEAR=2012
DGENRE=Country
TTITLE0=Darryl Worley - You Still Got It
TTITLE1=Dirt Drifters - There She Goes
TTITLE2=Easton Corbin - Lovin' You Is Fun
TTITLE3=Thomas Rhett - Something To Do With My Hands
TTITLE4=James Wesley - Walking Contradiction
TTITLE5=McClymonts - I Could Be A Cowboy
TTITLE6=Hunter Hayes - Wanted
TTITLE7=David Nail - The Sound Of A Million Dreams
TTITLE8=Brad Wolf - Too Many Mondays (Not Enough Saturday Nights)
TTITLE9=Jason Aldean - Fly Over States (Promo Only Clean Edit)
TTITLE10=Sonia Leigh - Bar (Promo Only Clean Edit)
TTITLE11=Kristen Kelley - Ex-Old Man (Promo Only Clean Edit)
TTITLE12=Martin Zellar and The Hardways - Seven Shades Of Blue
TTITLE13=Matt Stillwell - Ignition
TTITLE14=Aaron Lewis - Endless Summer
TTITLE15=Ellioott Brood - Northern Air
TTITLE16=Kix Brooks ft. Joe Walsh - New To This Town
TTITLE17=Levi Hart - Baby Call Me Up
TTITLE18=Tommy Womack - Play That Cheap Trick, Cheap Trick Play
EXTD=
EXTT0=
EXTT1=
EXTT2=
EXTT3=
EXTT4=
EXTT5=
EXTT6=
EXTT7=
EXTT8=
EXTT9=
EXTT10=
EXTT11=
EXTT12=
EXTT13=
EXTT14=
EXTT15=
EXTT16=
EXTT17=
EXTT18=
PLAYORDER=
